<svg width="306" height="223" viewBox="0 0 306 223" fill="none" xmlns="http://www.w3.org/2000/svg">
<g filter="url(#filter0_d)">
<path d="M158.054 157.678C153.776 158.858 150.202 162.098 150.202 162.098L144.845 163.062L153.607 157.434C153.699 157.443 153.796 157.448 153.896 157.454C154.493 157.496 155.217 157.529 156.014 157.568C156.656 157.6 157.345 157.634 158.054 157.678Z" fill="#8C8C8C"/>
<path d="M122.891 162.42L119.023 161.775C119.023 161.775 117.384 159.923 116 159.717C116.312 159.708 116.618 159.699 116.913 159.689H116.914C117.358 159.673 117.78 159.653 118.166 159.628C119.277 159.559 120.111 159.441 120.407 159.216C120.443 159.214 120.477 159.212 120.513 159.208C121.003 159.181 121.326 159.164 121.326 159.164L121.529 159.586L122.891 162.42Z" fill="#8C8C8C"/>
<path d="M65.7675 31.6722C65.7675 31.6722 58.7966 27.4682 55.1371 37.3288C51.2803 47.115 47.0412 59.1404 47.0412 59.1404L54.5378 61.9234C54.5378 61.9234 57.8923 35.9741 65.7675 31.6722Z" fill="#0B0A0F"/>
<path d="M136.432 99.5896C136.432 99.5896 147.765 96.8012 148.093 121.584C147.767 127.832 136.432 129.36 136.432 129.36L128.432 126.159C128.432 126.158 125.939 98.9005 136.432 99.5896Z" fill="#0B0A0F"/>
<path opacity="0.8" d="M11.6377 158.935L287.237 155.748C287.237 155.748 308.92 153.867 297.899 171.187C286.878 188.508 250.515 195.34 217.158 209.828C182.709 224.79 160.684 202.694 125.521 201.051C90.3594 199.405 25.9527 189.086 15.7772 177.966C1.93409 162.838 -0.0405517 159.42 11.6377 158.935Z" fill="#BFBFC1"/>
<path d="M78.7772 161.808C78.7772 161.808 81.8464 165.911 81.4247 166.56C81.0039 167.211 77.7769 167.304 75.8121 166.56C73.8482 165.818 73.8016 161.01 72.9125 158.944C72.5411 158.08 73.3369 155.527 74.4574 155.341C75.577 155.157 76.7936 155.7 76.7936 155.7C76.7936 155.7 75.6327 158.61 78.7772 161.808Z" fill="#0B0A0F"/>
<path d="M76.8142 155.667C76.8142 155.667 77.4602 157.414 77.6952 159.082C77.8908 160.466 79.8825 163.401 79.7883 163.774C79.695 164.144 77.1695 164.483 76.1404 163.524C75.1123 162.567 74.4493 159.781 74.2232 158.115C74.0124 156.563 73.7459 155.796 73.7459 155.796C73.7459 155.796 75.8318 154.646 76.8142 155.667Z" fill="#F1B99E"/>
<path d="M52.0689 161.875C52.0689 161.875 55.0268 165.911 54.606 166.56C54.1844 167.211 50.9591 167.304 48.9943 166.56C47.0305 165.818 46.9838 161.01 46.0947 158.944C45.7224 158.08 46.5191 155.527 47.6387 155.341C48.7575 155.157 50.07 155.739 50.07 155.739C50.07 155.739 48.9244 158.678 52.0689 161.875Z" fill="#0B0A0F"/>
<path d="M50.0691 155.74C50.0691 155.74 50.3033 157.644 50.6774 158.992C51.0515 160.338 53.0629 163.402 52.9696 163.775C52.8763 164.145 50.3499 164.483 49.3218 163.525C48.2936 162.568 47.4979 159.794 47.4055 158.116C47.3113 156.438 47.6387 155.342 47.6387 155.342C47.6387 155.342 49.0885 154.718 50.0691 155.74Z" fill="#F1B99E"/>
<path d="M64.8497 88.9538C64.8497 88.9538 67.4829 101.118 68.0885 104.18C68.6941 107.243 70.387 122.078 70.5673 124.6C70.7485 127.122 73.3153 136.624 73.1951 137.526C73.0731 138.426 77.3615 156.281 77.3615 156.281C77.3615 156.281 73.7657 156.67 72.5536 156.187C71.7264 155.857 65.633 139.677 65.633 135.173C65.633 128.948 61.9797 120.819 61.4495 119.402C56.2371 105.453 55.2807 102.144 54.5549 101.303C54.5549 101.303 54.4445 102.441 54.1987 104.331C53.9134 106.504 52.6691 122.028 52.1245 124.07C51.5808 126.111 52.0016 133.018 51.7001 136.502C51.3978 139.984 51.4292 156.677 51.4292 156.677C51.4292 156.677 45.8301 155.986 44.6288 155.305C44.2242 155.076 44.1057 139.199 45.0486 134.087C45.8005 130.011 44.923 124.229 44.8064 122.437C43.6859 105.264 39.2458 101.422 43.5827 89.2696C51.7037 66.516 64.8497 88.9538 64.8497 88.9538Z" fill="#0B0A0F"/>
<path d="M72.8308 158.583V162.878H73.3934V159.559L72.8308 158.583Z" fill="#0B0A0F"/>
<path d="M46.0131 158.583V162.878H46.5738V159.559L46.0131 158.583Z" fill="#0B0A0F"/>
<path d="M66.9679 53.3672C66.9679 53.3672 69.7733 64.8652 69.1283 67.1431C68.4841 69.4209 65.1709 71.715 65.0426 72.0227C64.9134 72.334 62.8258 78.9568 62.9056 80.0854C62.9846 81.2131 64.8488 88.9529 64.8488 88.9529C64.8488 88.9529 54.2382 94.9961 43.5818 85.5814C43.5818 85.5814 47.977 75.9944 48.0487 74.8837C48.1214 73.7739 48.4273 65.4699 48.0577 64.4606C47.6872 63.4504 47.008 53.448 47.488 52.4692C47.9671 51.4895 53.3509 48.7783 57.4464 47.9484C61.5437 47.1186 66.9679 53.3672 66.9679 53.3672Z" fill="#3AD463"/>
<path d="M78.0397 52.1337C78.0397 52.1337 76.7532 49.095 76.58 47.8829C76.4069 46.6709 75.3545 43.1693 75.3742 42.8723C75.3949 42.5763 71.6941 37.2804 71.7282 36.6488C71.7614 36.0172 70.3861 36.4954 71.285 38.3875C72.1831 40.2778 73.4256 43.4923 72.8873 44.1059C72.3508 44.7187 70.6705 42.971 70.0093 43.1935C69.3498 43.4169 69.4297 43.3442 69.5167 43.686C69.6037 44.0279 72.0835 45.0946 72.4271 46.1416C72.7698 47.1894 74.0823 48.1808 74.3542 48.9775C74.6269 49.7732 76.0328 53.5763 76.0328 53.5763L78.0397 52.1337Z" fill="#F1B99E"/>
<path d="M64.5357 49.4888L65.3423 52.4862L67.6767 61.1554C67.6767 61.1554 68.4545 61.7942 69.5517 62.6806C71.974 64.6427 77.4494 68.3067 78.0397 68.5175C78.8059 68.7884 82.6968 68.8961 82.9525 66.2432C83.2082 63.5903 77.0798 48.2894 77.0798 48.2894C75.1895 47.8291 73.2139 48.6993 73.2139 48.6993L76.3306 60.9671C76.2858 60.9365 74.1254 59.5442 72.3284 56.9254C71.3945 55.5671 69.357 53.6355 67.6004 52.0834C66.4099 51.0302 65.3486 50.1527 64.8453 49.741C64.647 49.5786 64.5357 49.4888 64.5357 49.4888Z" fill="#3AD463"/>
<path d="M57.738 47.6613C58.3167 53.8634 61.6523 58.3707 62.9505 59.0579C64.2478 59.7451 65.6877 52.6101 64.9781 51.3442C64.7896 51.0068 64.7591 50.5152 64.8157 49.9769C64.9215 48.9577 65.3459 47.7708 65.5953 47.1392C65.7047 46.8593 65.7819 46.6861 65.7819 46.6861C65.7819 46.6861 61.5698 38.5202 60.7157 42.8311C59.8616 47.1419 57.738 47.6613 57.738 47.6613Z" fill="#F1B99E"/>
<path d="M61.8147 45.4346C61.8317 45.4875 62.8706 48.7783 64.8157 49.976C64.9215 48.9568 65.3459 47.7699 65.5953 47.1383L61.8147 45.4346Z" fill="#C48A6F"/>
<path d="M73.4669 33.0539C73.4669 33.0539 72.9977 41.2978 70.544 44.978C66.6091 50.883 64.734 48.9057 62.2462 46.0285C58.6504 41.8747 63.5857 31.2497 63.5857 31.2497L73.4669 33.0539Z" fill="#F1B99E"/>
<path d="M73.6311 39.6982C73.6311 39.6982 70.9531 42.2964 67.2003 40.0275C63.4762 37.7756 62.0336 44.4361 61.1391 44.6666C60.2438 44.8981 59.7378 35.2636 61.759 33.0108C63.783 30.7589 67.4093 28.0056 71.0213 30.3131C74.9759 32.8394 75.5528 36.2684 73.6311 39.6982Z" fill="#0B0A0F"/>
<path d="M64.2944 40.372C64.6443 39.3357 63.0985 38.2251 62.5189 39.0173C61.9394 39.8086 62.1134 42.6462 63.0743 42.3367C64.0369 42.0281 64.2944 40.372 64.2944 40.372Z" fill="#EEA886"/>
<path d="M30.7669 82.0941C30.7669 82.0941 29.2794 82.6692 28.5706 81.9183C28.0305 81.3459 27.0885 80.2927 26.9414 79.9849C26.8041 79.7041 25.9949 78.5836 25.8397 79.164C25.6827 79.7454 26.6014 82.3283 27.0132 82.6432C27.425 82.9572 25.2242 83.4776 24.9022 83.8983C24.5801 84.3191 25.715 88.0261 27.1809 87.4887C28.6469 86.954 29.7172 85.4378 29.9693 85.314C30.3936 85.105 32.0426 84.4151 32.0426 84.4151L30.7669 82.0941Z" fill="#F1B99E"/>
<path d="M25.2126 83.6893C25.2126 83.6893 20.838 85.6379 20.6577 86.021C20.4792 86.4032 20.603 86.6418 21.0184 86.4776C21.4364 86.3126 25.3014 84.7219 25.3014 84.7219C25.3014 84.7219 20.524 87.9292 20.3096 88.2082C20.184 88.3715 20.3957 88.8479 20.6272 88.7815C20.8587 88.7151 25.7787 85.8173 25.7787 85.8173C25.7787 85.8173 21.3225 88.821 21.2122 89.1099C21.1162 89.3638 21.4158 89.754 21.7621 89.5549C22.1075 89.3557 26.4022 86.8114 26.4022 86.8114C26.4022 86.8114 23.3563 89.1996 23.3483 89.5145C23.3393 89.7881 23.5421 90.1219 24.3244 89.4759C25.1058 88.8318 27.1091 87.5129 27.1091 87.5129L25.2126 83.6893Z" fill="#F1B99E"/>
<path d="M43.8205 62.503C42.9457 66.6954 41.2986 72.7216 40.8706 73.4626C40.6786 73.7937 39.9537 74.3723 38.9597 75.204C37.5161 76.4107 29.4794 82.1435 29.4794 82.1435C29.4444 83.5843 31.4065 85.5823 31.4065 85.5823C32.7164 84.7775 35.4348 83.1761 38.3469 81.6052C41.7014 79.7938 44.1237 77.9968 44.7544 77.0449C45.9297 75.2677 50.0153 64.4552 50.8434 61.7341C51.1619 60.6862 51.5234 58.935 51.8473 57.1766C52.2743 54.8583 52.635 52.5302 52.748 51.7883C52.7705 51.6429 52.7839 51.5577 52.7848 51.546C52.7848 51.5451 52.7857 51.5442 52.7857 51.5442C52.7857 51.5442 51.047 49.2699 47.8657 51.599C47.8648 51.599 45.613 53.893 43.8205 62.503Z" fill="#3AD463"/>
<path d="M106.003 151.505C106.003 151.505 104.239 151.811 103.567 151.3C102.896 150.792 101.749 150.437 101.381 150.342C100.891 150.217 99.4934 149.282 99.3687 149.89C99.244 150.496 101.605 151.538 102.063 151.852C102.52 152.166 100.225 152.768 99.9142 153.212C99.601 153.658 101.06 157.466 102.577 156.869C104.091 156.271 105.25 154.608 105.541 154.556C105.833 154.504 106.664 154.164 106.664 154.164L106.003 151.505Z" fill="#F1B99E"/>
<path d="M100.231 152.988C100.231 152.988 95.7307 155.133 95.5693 155.535C95.4051 155.937 95.5513 156.18 95.982 156C96.4117 155.817 100.397 154.056 100.397 154.056C100.397 154.056 95.5576 157.517 95.3503 157.812C95.2283 157.984 95.4858 158.473 95.7271 158.396C95.9676 158.322 100.977 155.175 100.977 155.175C100.977 155.175 96.4673 158.417 96.3695 158.72C96.2852 158.986 96.6297 159.38 96.9832 159.166C97.3358 158.95 101.708 156.189 101.708 156.189C101.708 156.189 98.5873 158.763 98.6618 159.078C98.7048 159.271 98.9094 159.702 99.6917 159.01C100.474 158.319 102.505 156.894 102.505 156.894L100.231 152.988Z" fill="#F1B99E"/>
<path d="M150.048 154.739C150.045 154.739 150.042 154.729 150.041 154.72C150.04 154.719 150.04 154.717 150.04 154.716C150.04 154.716 150.04 154.714 150.04 154.713C150.039 154.712 150.038 154.709 150.038 154.709C150.038 154.709 149.789 154.724 149.341 154.752C145.544 154.983 127.401 156.034 124.877 155.107C124.877 155.107 124.945 154.862 125.068 154.536C125.214 154.143 125.365 153.77 125.515 153.414C126.708 150.607 127.978 148.912 128.489 147.71C128.663 147.296 128.854 147.038 128.98 146.025C129.335 143.203 129.279 138.717 128.734 136.812C127.997 134.225 126.847 132.503 128.037 129.095C129.229 125.689 129.438 122.582 129.438 122.582L133.25 121.076C133.25 121.076 133.005 130.203 138.177 130.407C143.349 130.612 143.173 120.444 143.173 120.444L147.083 121.665C147.083 121.665 147.781 127.042 148.56 128.397C149.339 129.753 148.928 133.364 148.026 135.456C147.122 137.55 146.548 141.491 146.548 143.83C146.548 144.33 146.686 144.985 146.905 145.719C147.656 148.236 149.364 151.692 149.766 153.159C149.795 153.26 149.817 153.352 149.831 153.435C149.91 153.868 149.96 154.16 149.992 154.354C150.046 154.675 150.053 154.739 150.048 154.739Z" fill="#3AD463"/>
<path d="M167.934 172.195C163.665 172.277 153.856 173.18 149.627 171.621C146.545 170.483 139.367 168.409 134.151 167.336C132.21 166.938 130.541 166.677 129.455 166.653C126.606 166.595 123.683 164.045 121.599 162.318C120.756 161.618 120.05 161.055 119.541 160.848C119.043 160.643 118.671 160.401 118.439 160.156C118.269 159.976 118.175 159.794 118.165 159.626C118.143 159.217 118.634 158.895 119.746 158.895C120.055 158.895 120.372 158.909 120.695 158.935C122.633 159.079 124.701 159.588 125.862 159.553C127.216 159.51 130.91 162.754 131.649 162.918C131.963 162.987 132.892 163.265 134.089 163.351C135.711 163.472 137.823 163.244 139.57 161.688C140.483 160.873 141.794 159.916 143.179 158.979C146.368 156.821 149.957 154.755 150.036 154.71C150.036 154.708 150.038 154.708 150.038 154.708C150.038 154.708 150.039 154.71 150.04 154.713C150.04 154.713 150.04 154.713 150.04 154.715C150.041 154.716 150.041 154.718 150.041 154.719C150.043 154.723 150.045 154.73 150.048 154.738C150.088 154.847 150.254 155.278 150.564 155.758C150.767 156.074 151.029 156.409 151.358 156.691C151.675 156.966 152.055 157.189 152.5 157.295C152.739 157.352 153.119 157.395 153.606 157.433C153.699 157.441 153.795 157.446 153.895 157.452C154.492 157.494 155.216 157.527 156.013 157.566C156.655 157.598 157.343 157.632 158.052 157.676C161.124 157.862 164.568 158.211 166.126 159.183C166.86 159.64 167.676 160.188 168.483 160.786C168.483 160.786 168.483 160.786 168.484 160.788C170.564 162.333 172.589 164.221 172.991 165.782C173.035 165.953 173.059 166.121 173.062 166.284C173.106 168.501 172.202 172.114 167.934 172.195Z" fill="#0B0A0F"/>
<path d="M150.054 154.741C150.096 154.853 150.255 155.279 150.564 155.759C150.767 156.074 151.029 156.41 151.358 156.692C151.675 156.967 152.055 157.19 152.5 157.296C152.785 157.363 153.271 157.412 153.896 157.454L142.445 163.619L127.462 163.253L121.599 162.319L120.485 162.141C120.485 162.141 117.573 160.113 116.915 159.69C117.359 159.674 117.781 159.654 118.167 159.629C118.145 159.22 118.636 158.898 119.748 158.898C120.057 158.898 120.374 158.912 120.697 158.937C121.755 157.853 124.877 155.11 124.877 155.11L150.049 154.71L150.054 154.741Z" fill="#0B0A0F"/>
<path opacity="0.8" d="M151.52 159.945C151.344 159.987 151.159 160.038 150.965 160.088C148.736 160.29 139.321 165.548 139.321 165.548C139.305 165.556 139.305 165.556 139.305 165.556C137.857 166.07 136.065 166.684 134.156 167.34C129.368 168.964 123.849 170.815 121.35 171.867C116.748 173.792 105.584 172.893 103.859 172.195C102.607 171.681 101.63 169.427 101.385 167.458C101.301 166.734 101.31 166.044 101.445 165.506C101.738 164.287 103.244 162.822 105.07 161.72C106.248 161.004 107.569 160.432 108.79 160.172C110.464 159.809 113.458 159.784 116 159.718C116.311 159.708 116.622 159.7 116.916 159.692C117.362 159.675 117.783 159.65 118.169 159.625C119.279 159.558 120.113 159.44 120.408 159.213C120.424 159.204 120.432 159.196 120.44 159.188L120.516 159.205L121.526 159.584L128.122 162.014C130.933 164.245 134.281 163.176 135.703 162.931C137.773 162.578 138.302 161.955 138.832 161.123C139.009 160.837 139.193 160.525 139.447 160.189C139.842 159.801 140.38 159.415 140.86 159.17C140.86 159.162 140.868 159.162 140.868 159.162C141.449 159.01 142.172 159.028 143.182 158.977C143.485 158.96 143.788 158.96 144.074 158.96C144.343 158.96 144.62 158.935 144.906 158.892C144.95 158.883 145 158.875 145.034 158.867H145.059C145.471 158.884 145.74 158.9 145.74 158.9C145.361 159.481 146.052 159.061 145.758 158.892C149.518 157.361 151.167 158.379 151.521 158.656C151.554 158.682 151.579 158.699 151.588 158.715C151.597 158.715 151.597 158.724 151.597 158.724C151.597 158.724 151.605 158.733 151.622 158.741C151.647 158.766 151.689 158.791 151.731 158.842C152.158 159.289 152.26 159.769 151.52 159.945Z" fill="#8C8C8C"/>
<path d="M151.621 158.742C151.603 158.734 151.596 158.725 151.596 158.725C151.596 158.725 151.596 158.716 151.588 158.716C151.603 158.717 151.613 158.726 151.621 158.742Z" fill="#EDDAD3"/>
<path d="M139.3 165.556C137.859 166.069 136.064 166.685 134.15 167.336C129.364 168.964 123.848 170.817 121.347 171.867C120.031 172.42 118.178 172.74 116.162 172.899C116.155 172.899 116.147 172.901 116.14 172.901C115.517 172.95 114.879 172.982 114.236 173.002C114.196 173.003 114.154 173.005 114.114 173.006C111.444 173.084 108.712 172.936 106.706 172.713C106.701 172.712 106.697 172.712 106.689 172.709C105.322 172.558 104.294 172.369 103.862 172.195C102.603 171.686 101.629 169.425 101.387 167.459C101.297 166.732 101.307 166.047 101.441 165.504C101.739 164.282 103.242 162.824 105.07 161.718C105.072 161.716 105.072 161.716 105.072 161.716C106.252 161.002 107.57 160.434 108.788 160.169C110.46 159.807 113.455 159.785 116.002 159.716C116.314 159.709 116.62 159.698 116.915 159.688H116.916C117.36 159.672 117.782 159.652 118.167 159.629C119.278 159.558 120.113 159.44 120.409 159.215C120.423 159.205 120.436 159.196 120.446 159.185L120.515 159.207H120.515L121.531 159.585L128.122 162.015C130.458 163.863 133.16 163.44 134.824 163.105C135.165 163.035 135.463 162.97 135.704 162.929C136.226 162.839 136.652 162.734 137.001 162.611L139.3 165.556Z" fill="#0B0A0F"/>
<path d="M142.934 145.259C142.934 145.259 151.178 144.044 152.688 143.955C153.111 143.929 149.446 134.588 148.912 133.727C148.867 133.655 148.779 133.588 148.649 133.523C147.197 132.794 140.843 132.423 140.843 132.423L127.872 133.735C127.872 133.735 127.849 133.782 127.802 133.864C127.386 134.638 125.575 138.877 125.094 140.062C124.559 141.375 122.245 148.102 121.056 148.494C118.407 149.365 106.992 153.999 106.664 154.163C106.337 154.328 104.047 151.989 104.58 151.25C105.114 150.51 116.264 146.172 117.341 144.599C118.323 143.162 120.933 135.293 121.36 134.008C121.759 132.809 122.701 126.551 124.918 124.869C125.761 124.227 127.475 123.279 129.273 122.511C129.323 122.49 129.372 122.467 129.422 122.447C130.761 121.885 132.042 121.441 133.127 121.033C133.165 121.02 133.201 121.006 133.237 120.993C134.434 120.55 135.344 120.311 135.344 120.311L141.156 119.93C141.156 119.93 142.316 120.202 143.173 120.445C143.193 120.45 143.214 120.456 143.236 120.462C144.527 120.832 146.279 121.351 147.083 121.667C147.101 121.674 147.121 121.682 147.139 121.691C147.223 121.723 147.312 121.756 147.407 121.792C148.895 122.37 151.71 123.44 152.09 124.581C152.5 125.812 153.732 129.052 154.06 131.435C154.387 133.816 154.204 132.163 156.526 139.692C156.933 141.008 159.584 147.91 156.682 147.964C154.769 148.001 153.143 148.249 144.489 147.891C143.702 147.859 142.934 145.259 142.934 145.259Z" fill="#3AD463"/>
<path d="M145.471 162.995C145.471 162.995 156.36 161.03 158.903 162.14C161.449 163.246 163.336 165.792 165.84 165.546C168.344 165.299 165.871 164.156 164.086 163.681C162.3 163.207 160.909 161.05 156.186 161.205C151.463 161.36 148.293 162.159 148.293 162.159C148.293 162.159 146.178 162.712 145.471 162.995Z" fill="#8C8C8C"/>
<path opacity="0.8" d="M121.187 161.978C121.187 161.978 120.26 161.097 119.459 160.849C118.658 160.601 117.38 159.364 118.833 158.997C120.657 158.535 123.974 159.696 124.877 159.677C125.78 159.657 127.425 160.063 128.695 160.959C129.966 161.855 131.533 163.154 132.535 163.13C132.535 163.13 132.47 163.373 131.812 163.35C131.157 163.331 121.546 162.274 121.546 162.274L121.187 161.978Z" fill="#8C8C8C"/>
<path d="M137.43 162.399C137.43 162.399 135.589 164.027 128.447 163.329C121.306 162.632 117.775 161.463 114.04 162.95C110.304 164.437 110.797 164.848 108.909 164.848C107.02 164.848 110.099 162.508 114.122 161.81C118.143 161.113 128.119 163.041 129.267 163.041C130.418 163.042 134.874 163.48 137.43 162.399Z" fill="#8C8C8C"/>
<path d="M140.561 167.169C140.561 167.169 128.923 172.006 116.163 172.9C116.155 172.9 116.147 172.901 116.14 172.901C115.508 172.945 114.873 172.98 114.236 173.003C114.196 173.004 114.154 173.006 114.114 173.007C111.642 173.096 109.147 173.016 106.706 172.714C106.701 172.713 106.697 172.713 106.689 172.71C106.689 172.71 127.547 165.216 134.822 163.105C135.826 162.815 136.573 162.625 136.968 162.573L136.999 162.612L139.3 165.556L140.561 167.169Z" fill="#0B0A0F"/>
<path d="M141.172 116.3C141.172 116.3 140.815 120.732 141.67 122.061C142.523 123.388 140.939 125.192 137.675 124.575C134.41 123.958 134.601 122.109 134.601 122.109C134.601 122.109 135.515 119.372 135.247 117.183C134.98 114.993 141.172 116.3 141.172 116.3Z" fill="#F1B99E"/>
<path d="M140.127 143.651C140.127 143.651 140.197 141.838 140.303 141.391C140.409 140.943 139.38 140.437 139.254 141.544C139.131 142.652 139.065 143.356 139.065 143.356L140.127 143.651Z" fill="#EEA886"/>
<path d="M138.756 146.077L135.397 145.939C134.967 145.922 134.625 145.572 134.62 145.141L134.529 137.788C134.525 137.325 134.904 136.953 135.365 136.968L139.386 137.1C139.847 137.116 140.202 137.512 140.167 137.972L139.595 145.331C139.561 145.764 139.191 146.095 138.756 146.077Z" fill="#FCFCFE"/>
<path d="M140.749 144.589C140.749 144.589 140.81 143.898 139.487 143.268C137.728 142.429 135.383 141.576 134.981 141.797C134.405 142.114 134.701 142.553 135.813 142.918C136.924 143.285 137.291 143.402 137.291 143.402C137.291 143.402 135.117 143.195 134.63 143.456C134.142 143.714 134.115 144.315 134.471 144.414C134.827 144.512 135.668 144.573 135.668 144.573C135.668 144.573 134.745 144.609 134.653 144.978C134.586 145.251 134.551 145.644 135.424 145.807C135.424 145.807 134.83 146.463 135.719 146.884C136.608 147.306 138.213 147.689 139.022 147.823C140.7 148.098 144.49 147.892 144.49 147.892L142.934 145.258C142.934 145.258 142.067 145.325 141.472 145.124C140.666 144.85 140.749 144.589 140.749 144.589Z" fill="#EEA886"/>
<path d="M132.462 108.413C132.462 108.413 131.85 107.689 131.621 108.418C131.394 109.146 132.141 111.308 132.223 111.621C132.223 111.621 132.594 112.836 132.743 112.681C132.89 112.526 132.462 108.413 132.462 108.413Z" fill="#EEA886"/>
<path d="M143.147 108.502C143.147 108.502 143.758 107.781 143.987 108.507C144.215 109.236 143.467 111.399 143.386 111.71C143.386 111.71 143.015 112.925 142.867 112.771C142.718 112.614 143.147 108.502 143.147 108.502Z" fill="#EEA886"/>
<path d="M138.765 101.497C138.765 101.497 144.379 102.347 143.558 111.047C142.736 119.744 137.78 119.055 137.449 119.047C137.118 119.041 132.478 119.228 132.077 108.613C132.077 108.612 131.89 100.763 138.765 101.497Z" fill="#F1B99E"/>
<path d="M133.154 108.092C133.154 108.092 138.915 112.208 141.897 111.625C141.897 111.625 142.872 111.625 143.34 110.563C143.515 110.166 143.633 108.413 143.633 108.413C143.633 108.413 143.78 101.337 137.273 101.273C130.768 101.206 132.09 108.933 132.09 108.933L132.075 111.133C132.076 111.133 133.111 110.617 133.154 108.092Z" fill="#0B0A0F"/>
<path d="M135.625 118.489C135.625 118.489 138.019 120.058 140.717 118.017C140.717 118.017 140.169 119.759 138.086 119.788C136.005 119.814 135.625 118.489 135.625 118.489Z" fill="#A77860"/>
<path d="M143.377 145.196C143.377 145.196 143.651 146.17 143.711 147.926C143.711 147.926 144.185 148.032 144.489 147.893C144.489 147.893 144.568 146.648 144.115 145.088C144.116 145.088 143.742 144.996 143.377 145.196Z" fill="white"/>
<path d="M143.981 147.355C144.466 147.355 144.86 146.961 144.86 146.476C144.86 145.99 144.466 145.597 143.981 145.597C143.495 145.597 143.101 145.99 143.101 146.476C143.101 146.961 143.495 147.355 143.981 147.355Z" fill="white"/>
<path d="M225.906 52.977V57.487L225.879 63.6083L225.842 71.0035L225.82 76.46L220.385 70.982L218.725 70.9775L196.734 70.8743C193.018 70.1494 190.215 66.8793 190.215 62.9596V52.977C190.215 48.8348 193.346 45.414 197.368 44.9645L219.412 45.065C223.112 45.7962 225.906 49.06 225.906 52.977Z" fill="#8C8C8C"/>
<path opacity="0.8" d="M219.05 53.1932C219.05 53.8472 218.519 54.3783 217.866 54.3783H197.595C196.941 54.3783 196.409 53.8472 196.409 53.1932C196.409 52.5392 196.941 52.0081 197.595 52.0081H217.866C218.519 52.0081 219.05 52.5383 219.05 53.1932Z" fill="#BFBFC1"/>
<path opacity="0.8" d="M219.05 57.6027C219.05 58.2567 218.519 58.7879 217.866 58.7879H197.595C196.941 58.7879 196.409 58.2558 196.409 57.6027C196.409 56.9487 196.941 56.4176 197.595 56.4176H217.866C218.519 56.4176 219.05 56.9478 219.05 57.6027Z" fill="#BFBFC1"/>
<path opacity="0.8" d="M212.857 62.014C212.857 62.6627 212.324 63.1956 211.671 63.1956H197.594C196.94 63.1956 196.414 62.6618 196.414 62.014C196.414 61.6866 196.543 61.3914 196.758 61.1761C196.972 60.9617 197.267 60.8262 197.595 60.8262H211.672C212.324 60.8271 212.857 61.3573 212.857 62.014Z" fill="#BFBFC1"/>
<path d="M53.2531 8.01249V12.5225L53.2262 18.6447L53.1903 26.039L53.1679 31.4946L47.733 26.0184L46.0741 26.013L24.0822 25.9098C20.3661 25.1849 17.5625 21.9157 17.5625 17.9951V8.01249C17.5625 3.87122 20.6936 0.450372 24.7164 0L46.7595 0.101378C50.4612 0.832559 53.2531 4.09641 53.2531 8.01249Z" fill="#FCFCFE"/>
<path opacity="0.8" d="M46.398 8.22959C46.398 8.88452 45.8678 9.41473 45.2155 9.41473H24.9434C24.2894 9.41473 23.7592 8.88452 23.7592 8.22959C23.7592 7.57557 24.2894 7.04535 24.9434 7.04535H45.2155C45.8678 7.04445 46.398 7.57467 46.398 8.22959Z" fill="#EEEEEE"/>
<path opacity="0.8" d="M46.398 12.64C46.398 13.2931 45.8678 13.8251 45.2155 13.8251H24.9434C24.2894 13.8251 23.7592 13.2922 23.7592 12.64C23.7592 11.9851 24.2894 11.4549 24.9434 11.4549H45.2155C45.8678 11.454 46.398 11.9842 46.398 12.64Z" fill="#EEEEEE"/>
<path opacity="0.8" d="M40.204 17.0504C40.204 17.7 39.672 18.232 39.018 18.232H24.9416C24.2876 18.232 23.7619 17.6991 23.7619 17.0504C23.7619 16.723 23.8911 16.4287 24.1055 16.2125C24.319 15.9981 24.6151 15.8626 24.9425 15.8626H39.0189C39.6729 15.8626 40.204 16.3946 40.204 17.0504Z" fill="#EEEEEE"/>
<path d="M130.363 73.2285V77.7393L130.388 83.8615L130.425 91.255L130.446 96.7115L135.882 91.2344L137.542 91.229L159.534 91.1267C163.249 90.4018 166.052 87.1326 166.052 83.212V73.2285C166.052 69.0881 162.922 65.6681 158.899 65.216L136.854 65.3182C133.154 66.0485 130.363 69.3151 130.363 73.2285Z" fill="#3AD463"/>
<path d="M159.526 73.4474C159.526 74.1005 158.995 74.6307 158.341 74.6307H138.07C137.416 74.6307 136.887 74.0996 136.887 73.4474C136.887 72.7906 137.417 72.2613 138.07 72.2613H158.341C158.996 72.2613 159.526 72.7906 159.526 73.4474Z" fill="#34C65C"/>
<path d="M159.526 77.8551C159.526 78.5091 158.995 79.0402 158.341 79.0402H138.07C137.416 79.0402 136.887 78.5091 136.887 77.8551C136.887 77.2002 137.417 76.6708 138.07 76.6708H158.341C158.996 76.6708 159.526 77.2002 159.526 77.8551Z" fill="#34C65C"/>
<path d="M153.332 82.2664C153.332 82.9177 152.801 83.447 152.146 83.447H138.071C137.416 83.447 136.89 82.9168 136.89 82.2664C136.89 81.9398 137.02 81.6438 137.234 81.4276C137.448 81.214 137.744 81.0795 138.072 81.0795H152.146C152.801 81.0804 153.332 81.6124 153.332 82.2664Z" fill="#34C65C"/>
<path d="M283.227 117.144C283.212 154.314 282.17 161.592 272.836 169.921C269.18 173.183 262.458 179.958 243.06 183.331C237.236 184.345 230.273 185.049 221.907 185.262C218.495 185.349 215.362 185.227 212.497 184.913C210.094 184.654 207.88 184.261 205.843 183.751C184.524 178.408 182.932 160.142 192.256 144.777C194.725 140.708 197.546 136.966 200.506 133.478C205.072 128.091 209.967 123.306 214.402 118.843C218.487 114.725 222.182 110.881 224.868 107.086C226.001 105.486 226.953 103.896 227.682 102.296C227.855 101.918 228.03 101.544 228.204 101.173C228.779 99.9646 229.368 98.8046 229.965 97.6939C231.084 95.6071 232.224 93.6997 233.324 91.9943C234.201 90.6306 235.053 89.3961 235.845 88.2998C238.568 84.5389 240.59 82.4234 240.59 82.4234C240.59 82.4234 240.841 82.3068 241.308 82.1121C241.555 82.0071 241.866 81.8842 242.23 81.7443C242.376 81.6886 242.53 81.6303 242.695 81.5693C242.857 81.5119 243.027 81.4482 243.206 81.3854C243.371 81.3271 243.54 81.2679 243.715 81.2078C243.922 81.1369 244.138 81.0669 244.362 80.9942C244.493 80.9512 244.627 80.9072 244.763 80.8659C244.844 80.839 244.927 80.8121 245.009 80.7879C245.04 80.7771 245.071 80.769 245.103 80.7601C247.87 79.9087 251.666 79.0259 255.798 78.8778C268.051 78.4418 283.241 84.4851 283.227 117.144Z" fill="#3AD463"/>
<path d="M233.632 173.104C233.632 173.104 233.937 175.596 234.342 176.696C234.747 177.795 238.823 182.854 237.895 185.29C236.887 187.934 230.614 182.865 228.822 182.057C227.029 181.25 227.437 179.789 227.245 177.997C227.054 176.205 226.179 176.156 226.503 174.897C226.825 173.637 228.786 171.224 228.786 171.224L233.632 173.104Z" fill="#FCFCFE"/>
<path d="M229.633 169.919C229.633 169.919 228.507 171.495 228.538 171.538C228.569 171.581 233.358 174.497 233.692 173.549C233.956 172.8 234.067 171.711 234.067 171.711L229.633 169.919Z" fill="#EEA886"/>
<path d="M213.399 174.868C213.399 174.868 211.937 176.148 210.626 178.116C209.313 180.082 202.498 181.936 202.348 184.622C202.2 187.308 210.417 185.642 212.982 184.767C215.545 183.892 215.933 181.268 217.484 180.614C219.035 179.958 219.839 179.426 219.72 178.145C219.601 176.865 218.742 174.786 218.742 174.786C218.742 174.786 217.781 175.095 217.213 175.158C216.647 175.219 214.74 175.24 213.399 174.868Z" fill="#FCFCFE"/>
<path d="M230.975 102.089C230.975 102.089 229.992 107.932 229.2 111.793C228.878 113.356 228.589 114.596 228.408 114.987C228.181 115.479 226.337 117.459 224.08 119.784C220.119 123.862 214.885 128.998 214.885 128.998L212.839 125.114C212.839 125.114 217.488 119.664 220.638 116.027C222.099 114.345 223.236 113.052 223.444 112.867C224.103 112.274 224.867 106.468 225.942 101.682C227.017 96.8981 229.172 94.2533 229.172 94.2533L230.975 102.089Z" fill="#8C8C8C"/>
<path d="M224.08 119.783C220.119 123.861 214.885 128.997 214.885 128.997L212.839 125.113C212.839 125.113 217.488 119.663 220.638 116.026C221.606 116.501 223.378 117.631 224.08 119.783Z" fill="#F1B99E"/>
<path d="M213.628 173.078L213.399 174.868C213.399 174.868 215.941 175.764 218.742 174.786L218.8 173.196L213.628 173.078Z" fill="#EEA886"/>
<path d="M249.722 128.206C249.868 128.726 222.79 128.206 222.79 128.206C222.79 128.206 230.281 122.756 230.766 121.298C231.252 119.843 228.859 111.105 228.546 108.26C228.297 105.985 227.672 95.8054 229.171 94.2524C230.737 92.6267 236.383 90.9221 236.383 90.9221L244.614 91.229C244.614 91.229 245.972 91.5116 246.943 91.9628C247.913 92.4123 253.466 94.3914 254.367 97.1654C255.269 99.9403 248.827 108.859 248.827 108.859C248.827 108.859 248.814 109.261 248.794 109.917C248.77 110.793 248.734 112.125 248.7 113.568C248.657 115.438 248.618 117.497 248.618 119.001C248.619 122.538 249.576 127.685 249.722 128.206Z" fill="#8C8C8C"/>
<path d="M249.722 128.206C249.722 128.206 253.404 133.616 253.457 137.309C253.509 141.001 246.921 153.371 245.923 155.138C242.927 160.458 234.708 171.933 234.708 171.933C234.708 171.933 233.291 171.896 228.87 170.18C228.87 170.18 234.338 155.025 235.03 153.451C237.97 146.778 239.61 142.046 238.622 140.902C237.635 139.758 234.94 138.61 234.16 137.933C233.379 137.257 219.788 140.502 218.365 140.869C214.678 141.826 216.358 148.243 217.174 151.12C218.539 155.932 219.732 173.314 219.732 173.314C219.732 173.314 217.105 174.432 212.706 173.485C212.706 173.485 204.067 142.103 203.789 138.984C203.512 135.862 203.376 130.716 224.665 126.805L249.722 128.206Z" fill="#1B1D21"/>
<path d="M238.643 73.0409C238.643 73.0409 231.499 71.4306 233.13 80.4209C234.762 89.4113 236.48 90.1183 240.791 88.2576C245.101 86.396 244.714 80.6372 244.931 77.812C245.148 74.9887 240.922 73.1396 238.643 73.0409Z" fill="#F1B99E"/>
<path d="M236.753 93.2305C236.753 93.2305 239.915 96.5832 244.917 93.5356C244.917 93.5356 243.798 86.2668 244.386 82.7266C244.975 79.1856 237.862 88.2127 237.862 88.2127C237.956 88.2621 238.019 88.5994 238.032 89.0803C238.045 89.4867 238.023 89.9972 237.958 90.5211C237.811 91.6982 237.445 92.9407 236.753 93.2305Z" fill="#F1B99E"/>
<path d="M244.583 82.4243C244.583 82.4243 244.399 79.5929 243.365 79.5032C242.33 79.4152 242.171 80.5555 242.171 80.5555L241.126 80.7538C241.126 80.7538 241.456 78.2714 240.423 77.8372C239.39 77.4047 233.73 79.2035 232.9 78.4759C232.071 77.7474 230.363 71.5158 232.006 71.6728C238.623 72.3035 239.603 69.7879 242.638 71.8433C242.638 71.8433 245.004 71.5714 245.354 73.4806C245.704 75.3897 245.226 81.0059 244.583 82.4243Z" fill="#1B1D21"/>
<path d="M237.958 90.5211C243.116 88.9296 243.505 85.8236 243.51 85.7752C241.811 88.6927 238.032 89.0803 238.032 89.0803C238.045 89.4867 238.023 89.9972 237.958 90.5211Z" fill="#A77860"/>
<path d="M247.029 92.0014C247.029 92.0014 243.251 99.5214 237.147 99.0369C231.044 98.5515 236.108 90.9921 236.384 90.9221C236.69 90.8441 242.644 89.3629 247.029 92.0014Z" fill="#8C8C8C"/>
<path d="M219.694 127.826C219.694 127.826 238.394 130.13 249.723 128.206L228.075 125.502C228.075 125.502 227.948 126.053 219.694 127.826Z" fill="#1B1D21"/>
<path d="M233.681 124.652L232.287 125.357C232.287 125.357 232.604 127.57 233.367 128.239L234.93 127.84C234.93 127.84 234.605 125.414 233.681 124.652Z" fill="#EEA886"/>
<path d="M255.318 120.12C255.038 120.442 251.364 121.92 247.211 123.52H247.21C241.537 125.707 235.137 127.772 235.137 127.772L233.681 124.651C233.681 124.651 240.382 121.009 244.911 118.454C247.05 117.248 248.705 116.285 248.938 116.061C249.666 115.368 249.854 114.255 249.319 112.317C248.784 110.376 247.551 101.463 247.412 100.422C247.274 99.3823 247.759 96.6074 250.36 96.4692C252.96 96.3302 254.284 97.0641 254.284 97.0641C254.284 97.0641 254.938 97.3368 255.422 103.647C255.907 109.96 255.976 119.358 255.318 120.12Z" fill="#8C8C8C"/>
<path d="M248.795 109.916C248.771 110.792 248.735 112.124 248.701 113.567C246.162 107.344 247.629 102.381 247.654 102.296C247.379 103.985 248.776 109.833 248.795 109.916Z" fill="#8C8C8C"/>
<path d="M229.2 111.793C228.878 113.356 228.589 114.596 228.408 114.987C227.542 110.791 228.321 105.419 228.321 105.419C228.441 107.987 229.2 111.793 229.2 111.793Z" fill="#8C8C8C"/>
<path d="M247.211 123.52C241.537 125.707 234.931 127.839 234.931 127.839L233.681 124.651C233.681 124.651 240.382 121.009 244.911 118.454C244.91 118.455 246.558 119.258 247.211 123.52Z" fill="#F1B99E"/>
<path d="M233.276 128.026L206.698 127.636L220.117 134.448L233.276 128.026Z" fill="#FCFCFE"/>
<path d="M220.117 134.449L233.276 129.35V128.026L219.077 133.149L220.117 134.449Z" fill="#8C8C8C"/>
<path d="M232.587 125.405C232.587 125.405 230.927 125.147 229.78 124.879C228.892 124.672 226.684 124.957 226.121 125.528C225.56 126.099 223.771 130.068 223.434 130.309C223.094 130.552 223.606 131.114 224.2 130.832C224.2 130.832 224.745 132.57 226.091 131.919C227.437 131.267 228.351 129.849 229.056 129.598C229.76 129.348 233.866 128.086 233.866 128.086C233.866 128.086 233.645 124.982 232.587 125.405Z" fill="#F1B99E"/>
<path d="M226.527 125.267C226.527 125.267 225.461 125.781 225.181 126.012C224.903 126.242 223.775 127.086 223.502 127.285C223.228 127.485 223.914 128.049 225.932 127.173C227.95 126.3 226.527 125.267 226.527 125.267Z" fill="#F1B99E"/>
<path d="M220.117 134.448L212.212 112.865L186.726 113.279L194.261 133.172L220.117 134.448Z" fill="#8C8C8C"/>
<path d="M203.539 126.179C204.606 125.646 204.842 123.953 204.065 122.398C203.287 120.844 201.792 120.016 200.725 120.549C199.658 121.083 199.423 122.775 200.2 124.33C200.977 125.885 202.472 126.713 203.539 126.179Z" fill="#3AD463"/>
<path d="M242.192 79.356C242.286 78.562 243.855 78.2732 243.981 79.4619C244.108 80.6497 243.269 82.7374 242.674 82.5329C242.078 82.3265 242.062 80.4497 242.192 79.356Z" fill="#EEA886"/>
<path d="M145.757 158.893C146.051 159.062 145.361 159.482 145.739 158.901L145.748 158.893H145.757Z" fill="#EDDAD3"/>
<path d="M150.964 160.088C151.158 160.037 151.343 159.987 151.519 159.945C152.26 159.769 152.158 159.289 151.729 158.843C152.067 159.129 152.799 159.929 150.964 160.088Z" fill="#EDDAD3"/>
</g>
<defs>
<filter id="filter0_d" x="0" y="0" width="305.023" height="223" filterUnits="userSpaceOnUse" color-interpolation-filters="sRGB">
<feFlood flood-opacity="0" result="BackgroundImageFix"/>
<feColorMatrix in="SourceAlpha" type="matrix" values="0 0 0 0 0 0 0 0 0 0 0 0 0 0 0 0 0 0 127 0"/>
<feOffset dy="4"/>
<feGaussianBlur stdDeviation="2"/>
<feColorMatrix type="matrix" values="0 0 0 0 0 0 0 0 0 0 0 0 0 0 0 0 0 0 0.25 0"/>
<feBlend mode="normal" in2="BackgroundImageFix" result="effect1_dropShadow"/>
<feBlend mode="normal" in="SourceGraphic" in2="effect1_dropShadow" result="shape"/>
</filter>
</defs>
</svg>
